<?xml version="1.0" ?>
<mxfile host="65bd71144e">
	<diagram id="RFndyrCF2-3MIdXtw8gX" name="Page-1">
		<mxGraphModel dx="422" dy="816" grid="1" gridSize="10" guides="1" tooltips="1" connect="1" arrows="1" fold="1" page="1" pageScale="1" pageWidth="850" pageHeight="1100" math="0" shadow="0">
			<root>
				<mxCell id="0"/>
				<mxCell id="1" parent="0"/>
				<mxCell id="5752387472" value="&lt;b&gt;Module&lt;/b&gt;" style="rounded=1;whiteSpace=wrap;html=1;fillColor=#CC99FF;strokeColor=#000000;" parent="1" vertex="1">
					<mxGeometry x="637.02" y="0.0" width="120" height="120" as="geometry"/>
				</mxCell>
				<mxCell id="5752387520" value="&lt;b&gt;FunctionDef&lt;/b&gt;&lt;br&gt;name: main&lt;br&gt;lineno: 2&lt;br&gt;col_offset: 0&lt;br&gt;end_lineno: 8&lt;br&gt;end_col_offset: 14" style="rounded=1;whiteSpace=wrap;html=1;fillColor=#66B2FF;strokeColor=#000000;" parent="1" vertex="1">
					<mxGeometry x="637.02" y="144.0" width="120" height="120" as="geometry"/>
				</mxCell>
				<mxCell id="5752385840" value="&lt;b&gt;arguments&lt;/b&gt;" style="rounded=1;whiteSpace=wrap;html=1;fillColor=#E6E6E6;strokeColor=#000000;" parent="1" vertex="1">
					<mxGeometry x="910.02" y="288.0" width="120" height="120" as="geometry"/>
				</mxCell>
				<mxCell id="5752387664" value="&lt;b&gt;FunctionDef&lt;/b&gt;&lt;br&gt;name: plus&lt;br&gt;lineno: 3&lt;br&gt;col_offset: 4&lt;br&gt;end_lineno: 4&lt;br&gt;end_col_offset: 20" style="rounded=1;whiteSpace=wrap;html=1;fillColor=#66B2FF;strokeColor=#000000;" parent="1" vertex="1">
					<mxGeometry x="778.02" y="288.0" width="120" height="120" as="geometry"/>
				</mxCell>
				<mxCell id="5752387424" value="&lt;b&gt;arguments&lt;/b&gt;" style="rounded=1;whiteSpace=wrap;html=1;fillColor=#E6E6E6;strokeColor=#000000;" parent="1" vertex="1">
					<mxGeometry x="1042.02" y="432.0" width="120" height="120" as="geometry"/>
				</mxCell>
				<mxCell id="5749921520" value="&lt;b&gt;arg&lt;/b&gt;&lt;br&gt;arg: a&lt;br&gt;lineno: 3&lt;br&gt;col_offset: 13&lt;br&gt;end_lineno: 3&lt;br&gt;end_col_offset: 14" style="rounded=1;whiteSpace=wrap;html=1;fillColor=#E6E6E6;strokeColor=#000000;" parent="1" vertex="1">
					<mxGeometry x="1174.019" y="576.0" width="120" height="120" as="geometry"/>
				</mxCell>
				<mxCell id="5749921568" value="&lt;b&gt;arg&lt;/b&gt;&lt;br&gt;arg: b&lt;br&gt;lineno: 3&lt;br&gt;col_offset: 16&lt;br&gt;end_lineno: 3&lt;br&gt;end_col_offset: 17" style="rounded=1;whiteSpace=wrap;html=1;fillColor=#E6E6E6;strokeColor=#000000;" parent="1" vertex="1">
					<mxGeometry x="1042.02" y="576.0" width="120" height="120" as="geometry"/>
				</mxCell>
				<mxCell id="5749921616" value="&lt;b&gt;Return&lt;/b&gt;&lt;br&gt;lineno: 4&lt;br&gt;col_offset: 8&lt;br&gt;end_lineno: 4&lt;br&gt;end_col_offset: 20" style="rounded=1;whiteSpace=wrap;html=1;fillColor=#D6FFC9;strokeColor=#000000;" parent="1" vertex="1">
					<mxGeometry x="849.02" y="432.0" width="120" height="120" as="geometry"/>
				</mxCell>
				<mxCell id="5749921664" value="&lt;b&gt;BinOp&lt;/b&gt;&lt;br&gt;lineno: 4&lt;br&gt;col_offset: 15&lt;br&gt;end_lineno: 4&lt;br&gt;end_col_offset: 20" style="rounded=1;whiteSpace=wrap;html=1;fillColor=#CCCCFF;strokeColor=#000000;" parent="1" vertex="1">
					<mxGeometry x="910.02" y="576.0" width="120" height="120" as="geometry"/>
				</mxCell>
				<mxCell id="5749921712" value="&lt;b&gt;Name&lt;/b&gt;&lt;br&gt;id: a&lt;br&gt;lineno: 4&lt;br&gt;col_offset: 15&lt;br&gt;end_lineno: 4&lt;br&gt;end_col_offset: 16" style="rounded=1;whiteSpace=wrap;html=1;fillColor=#CCE5FF;strokeColor=#000000;" parent="1" vertex="1">
					<mxGeometry x="1108.02" y="720.0" width="120" height="120" as="geometry"/>
				</mxCell>
				<mxCell id="4318839664" value="&lt;b&gt;Load&lt;/b&gt;" style="rounded=1;whiteSpace=wrap;html=1;fillColor=#E6E6E6;strokeColor=#000000;" parent="1" vertex="1">
					<mxGeometry x="306.02" y="864.0" width="120" height="120" as="geometry"/>
				</mxCell>
				<mxCell id="4318840240" value="&lt;b&gt;Add&lt;/b&gt;" style="rounded=1;whiteSpace=wrap;html=1;fillColor=#E6E6E6;strokeColor=#000000;" parent="1" vertex="1">
					<mxGeometry x="844.02" y="720.0" width="120" height="120" as="geometry"/>
				</mxCell>
				<mxCell id="5749921760" value="&lt;b&gt;Name&lt;/b&gt;&lt;br&gt;id: b&lt;br&gt;lineno: 4&lt;br&gt;col_offset: 19&lt;br&gt;end_lineno: 4&lt;br&gt;end_col_offset: 20" style="rounded=1;whiteSpace=wrap;html=1;fillColor=#CCE5FF;strokeColor=#000000;" parent="1" vertex="1">
					<mxGeometry x="976.02" y="720.0" width="120" height="120" as="geometry"/>
				</mxCell>
				<mxCell id="5749921808" value="&lt;b&gt;Assign&lt;/b&gt;&lt;br&gt;lineno: 6&lt;br&gt;col_offset: 4&lt;br&gt;end_lineno: 6&lt;br&gt;end_col_offset: 15" style="rounded=1;whiteSpace=wrap;html=1;fillColor=#D6FFC9;strokeColor=#000000;" parent="1" vertex="1">
					<mxGeometry x="637.02" y="288.0" width="120" height="120" as="geometry"/>
				</mxCell>
				<mxCell id="5749921856" value="&lt;b&gt;Tuple&lt;/b&gt;&lt;br&gt;lineno: 6&lt;br&gt;col_offset: 4&lt;br&gt;end_lineno: 6&lt;br&gt;end_col_offset: 8" style="rounded=1;whiteSpace=wrap;html=1;fillColor=#FFD9B3;strokeColor=#000000;" parent="1" vertex="1">
					<mxGeometry x="481.02" y="432.0" width="120" height="120" as="geometry"/>
				</mxCell>
				<mxCell id="5749921904" value="&lt;b&gt;Name&lt;/b&gt;&lt;br&gt;id: x&lt;br&gt;lineno: 6&lt;br&gt;col_offset: 4&lt;br&gt;end_lineno: 6&lt;br&gt;end_col_offset: 5" style="rounded=1;whiteSpace=wrap;html=1;fillColor=#CCE5FF;strokeColor=#000000;" parent="1" vertex="1">
					<mxGeometry x="438.02" y="576.0" width="120" height="120" as="geometry"/>
				</mxCell>
				<mxCell id="4318839760" value="&lt;b&gt;Store&lt;/b&gt;" style="rounded=1;whiteSpace=wrap;html=1;fillColor=#E6E6E6;strokeColor=#000000;" parent="1" vertex="1">
					<mxGeometry x="438.02" y="720.0" width="120" height="120" as="geometry"/>
				</mxCell>
				<mxCell id="5749921952" value="&lt;b&gt;Name&lt;/b&gt;&lt;br&gt;id: y&lt;br&gt;lineno: 6&lt;br&gt;col_offset: 7&lt;br&gt;end_lineno: 6&lt;br&gt;end_col_offset: 8" style="rounded=1;whiteSpace=wrap;html=1;fillColor=#CCE5FF;strokeColor=#000000;" parent="1" vertex="1">
					<mxGeometry x="306.02" y="576.0" width="120" height="120" as="geometry"/>
				</mxCell>
				<mxCell id="5749928048" value="&lt;b&gt;Tuple&lt;/b&gt;&lt;br&gt;lineno: 6&lt;br&gt;col_offset: 11&lt;br&gt;end_lineno: 6&lt;br&gt;end_col_offset: 15" style="rounded=1;whiteSpace=wrap;html=1;fillColor=#FFD9B3;strokeColor=#000000;" parent="1" vertex="1">
					<mxGeometry x="698.02" y="432.0" width="120" height="120" as="geometry"/>
				</mxCell>
				<mxCell id="5749929200" value="&lt;b&gt;Constant&lt;/b&gt;&lt;br&gt;value: 1&lt;br&gt;lineno: 6&lt;br&gt;col_offset: 11&lt;br&gt;end_lineno: 6&lt;br&gt;end_col_offset: 12" style="rounded=1;whiteSpace=wrap;html=1;fillColor=#FFFFFF;strokeColor=#000000;" parent="1" vertex="1">
					<mxGeometry x="740.02" y="576.0" width="120" height="120" as="geometry"/>
				</mxCell>
				<mxCell id="5749929248" value="&lt;b&gt;Constant&lt;/b&gt;&lt;br&gt;value: 2&lt;br&gt;lineno: 6&lt;br&gt;col_offset: 14&lt;br&gt;end_lineno: 6&lt;br&gt;end_col_offset: 15" style="rounded=1;whiteSpace=wrap;html=1;fillColor=#FFFFFF;strokeColor=#000000;" parent="1" vertex="1">
					<mxGeometry x="608.02" y="576.0" width="120" height="120" as="geometry"/>
				</mxCell>
				<mxCell id="5749926176" value="&lt;b&gt;Assign&lt;/b&gt;&lt;br&gt;lineno: 7&lt;br&gt;col_offset: 4&lt;br&gt;end_lineno: 7&lt;br&gt;end_col_offset: 20" style="rounded=1;whiteSpace=wrap;html=1;fillColor=#D6FFC9;strokeColor=#000000;" parent="1" vertex="1">
					<mxGeometry x="174.0" y="432.0" width="120" height="120" as="geometry"/>
				</mxCell>
				<mxCell id="5749926224" value="&lt;b&gt;Name&lt;/b&gt;&lt;br&gt;id: res&lt;br&gt;lineno: 7&lt;br&gt;col_offset: 4&lt;br&gt;end_lineno: 7&lt;br&gt;end_col_offset: 7" style="rounded=1;whiteSpace=wrap;html=1;fillColor=#CCE5FF;strokeColor=#000000;" parent="1" vertex="1">
					<mxGeometry x="174.0" y="576.0" width="120" height="120" as="geometry"/>
				</mxCell>
				<mxCell id="5749926272" value="&lt;b&gt;Call&lt;/b&gt;&lt;br&gt;lineno: 7&lt;br&gt;col_offset: 10&lt;br&gt;end_lineno: 7&lt;br&gt;end_col_offset: 20" style="rounded=1;whiteSpace=wrap;html=1;fillColor=#FFCCFF;strokeColor=#000000;" parent="1" vertex="1">
					<mxGeometry x="42.0" y="576.0" width="120" height="120" as="geometry"/>
				</mxCell>
				<mxCell id="5749926320" value="&lt;b&gt;Name&lt;/b&gt;&lt;br&gt;id: plus&lt;br&gt;lineno: 7&lt;br&gt;col_offset: 10&lt;br&gt;end_lineno: 7&lt;br&gt;end_col_offset: 14" style="rounded=1;whiteSpace=wrap;html=1;fillColor=#CCE5FF;strokeColor=#000000;" parent="1" vertex="1">
					<mxGeometry x="306.02" y="720.0" width="120" height="120" as="geometry"/>
				</mxCell>
				<mxCell id="5749926368" value="&lt;b&gt;Name&lt;/b&gt;&lt;br&gt;id: x&lt;br&gt;lineno: 7&lt;br&gt;col_offset: 15&lt;br&gt;end_lineno: 7&lt;br&gt;end_col_offset: 16" style="rounded=1;whiteSpace=wrap;html=1;fillColor=#CCE5FF;strokeColor=#000000;" parent="1" vertex="1">
					<mxGeometry x="174.0" y="720.0" width="120" height="120" as="geometry"/>
				</mxCell>
				<mxCell id="5749926416" value="&lt;b&gt;Name&lt;/b&gt;&lt;br&gt;id: y&lt;br&gt;lineno: 7&lt;br&gt;col_offset: 18&lt;br&gt;end_lineno: 7&lt;br&gt;end_col_offset: 19" style="rounded=1;whiteSpace=wrap;html=1;fillColor=#CCE5FF;strokeColor=#000000;" parent="1" vertex="1">
					<mxGeometry x="42.0" y="720.0" width="120" height="120" as="geometry"/>
				</mxCell>
				<mxCell id="5749926464" value="&lt;b&gt;Return&lt;/b&gt;&lt;br&gt;lineno: 8&lt;br&gt;col_offset: 4&lt;br&gt;end_lineno: 8&lt;br&gt;end_col_offset: 14" style="rounded=1;whiteSpace=wrap;html=1;fillColor=#D6FFC9;strokeColor=#000000;" parent="1" vertex="1">
					<mxGeometry x="62.0" y="288.0" width="120" height="120" as="geometry"/>
				</mxCell>
				<mxCell id="5749926512" value="&lt;b&gt;Name&lt;/b&gt;&lt;br&gt;id: res&lt;br&gt;lineno: 8&lt;br&gt;col_offset: 11&lt;br&gt;end_lineno: 8&lt;br&gt;end_col_offset: 14" style="rounded=1;whiteSpace=wrap;html=1;fillColor=#CCE5FF;strokeColor=#000000;" parent="1" vertex="1">
					<mxGeometry x="0.0" y="432.0" width="120" height="120" as="geometry"/>
				</mxCell>
				<mxCell id="5752387472_5752387520" value="['body', 0]" style="endArrow=classic;html=1;" parent="1" source="5752387472" target="5752387520" edge="1">
					<mxGeometry width="50" height="50" relative="1" as="geometry">
						<mxPoint x="400" y="440" as="sourcePoint"/>
						<mxPoint x="450" y="390" as="targetPoint"/>
					</mxGeometry>
				</mxCell>
				<mxCell id="5752387520_5752385840" value="['args']" style="endArrow=classic;html=1;" parent="1" source="5752387520" target="5752385840" edge="1">
					<mxGeometry width="50" height="50" relative="1" as="geometry">
						<mxPoint x="400" y="440" as="sourcePoint"/>
						<mxPoint x="450" y="390" as="targetPoint"/>
					</mxGeometry>
				</mxCell>
				<mxCell id="5752387520_5752387664" value="['body', 0]" style="endArrow=classic;html=1;" parent="1" source="5752387520" target="5752387664" edge="1">
					<mxGeometry width="50" height="50" relative="1" as="geometry">
						<mxPoint x="400" y="440" as="sourcePoint"/>
						<mxPoint x="450" y="390" as="targetPoint"/>
					</mxGeometry>
				</mxCell>
				<mxCell id="5752387664_5752387424" value="['args']" style="endArrow=classic;html=1;" parent="1" source="5752387664" target="5752387424" edge="1">
					<mxGeometry width="50" height="50" relative="1" as="geometry">
						<mxPoint x="400" y="440" as="sourcePoint"/>
						<mxPoint x="450" y="390" as="targetPoint"/>
					</mxGeometry>
				</mxCell>
				<mxCell id="5752387424_5749921520" value="['args', 0]" style="endArrow=classic;html=1;" parent="1" source="5752387424" target="5749921520" edge="1">
					<mxGeometry width="50" height="50" relative="1" as="geometry">
						<mxPoint x="400" y="440" as="sourcePoint"/>
						<mxPoint x="450" y="390" as="targetPoint"/>
					</mxGeometry>
				</mxCell>
				<mxCell id="5752387424_5749921568" value="['args', 1]" style="endArrow=classic;html=1;" parent="1" source="5752387424" target="5749921568" edge="1">
					<mxGeometry width="50" height="50" relative="1" as="geometry">
						<mxPoint x="400" y="440" as="sourcePoint"/>
						<mxPoint x="450" y="390" as="targetPoint"/>
					</mxGeometry>
				</mxCell>
				<mxCell id="5752387664_5749921616" value="['body', 0]" style="endArrow=classic;html=1;" parent="1" source="5752387664" target="5749921616" edge="1">
					<mxGeometry width="50" height="50" relative="1" as="geometry">
						<mxPoint x="400" y="440" as="sourcePoint"/>
						<mxPoint x="450" y="390" as="targetPoint"/>
					</mxGeometry>
				</mxCell>
				<mxCell id="5749921616_5749921664" value="['value']" style="endArrow=classic;html=1;" parent="1" source="5749921616" target="5749921664" edge="1">
					<mxGeometry width="50" height="50" relative="1" as="geometry">
						<mxPoint x="400" y="440" as="sourcePoint"/>
						<mxPoint x="450" y="390" as="targetPoint"/>
					</mxGeometry>
				</mxCell>
				<mxCell id="5749921664_5749921712" value="['left']" style="endArrow=classic;html=1;" parent="1" source="5749921664" target="5749921712" edge="1">
					<mxGeometry width="50" height="50" relative="1" as="geometry">
						<mxPoint x="400" y="440" as="sourcePoint"/>
						<mxPoint x="450" y="390" as="targetPoint"/>
					</mxGeometry>
				</mxCell>
				<mxCell id="5749921712_4318839664" value="['ctx']" style="endArrow=classic;html=1;" parent="1" source="5749921712" target="4318839664" edge="1">
					<mxGeometry width="50" height="50" relative="1" as="geometry">
						<mxPoint x="400" y="440" as="sourcePoint"/>
						<mxPoint x="450" y="390" as="targetPoint"/>
					</mxGeometry>
				</mxCell>
				<mxCell id="5749921664_4318840240" value="['op']" style="endArrow=classic;html=1;" parent="1" source="5749921664" target="4318840240" edge="1">
					<mxGeometry width="50" height="50" relative="1" as="geometry">
						<mxPoint x="400" y="440" as="sourcePoint"/>
						<mxPoint x="450" y="390" as="targetPoint"/>
					</mxGeometry>
				</mxCell>
				<mxCell id="5749921664_5749921760" value="['right']" style="endArrow=classic;html=1;" parent="1" source="5749921664" target="5749921760" edge="1">
					<mxGeometry width="50" height="50" relative="1" as="geometry">
						<mxPoint x="400" y="440" as="sourcePoint"/>
						<mxPoint x="450" y="390" as="targetPoint"/>
					</mxGeometry>
				</mxCell>
				<mxCell id="5749921760_4318839664" value="['ctx']" style="endArrow=classic;html=1;" parent="1" source="5749921760" target="4318839664" edge="1">
					<mxGeometry width="50" height="50" relative="1" as="geometry">
						<mxPoint x="400" y="440" as="sourcePoint"/>
						<mxPoint x="450" y="390" as="targetPoint"/>
					</mxGeometry>
				</mxCell>
				<mxCell id="5752387520_5749921808" value="['body', 1]" style="endArrow=classic;html=1;" parent="1" source="5752387520" target="5749921808" edge="1">
					<mxGeometry width="50" height="50" relative="1" as="geometry">
						<mxPoint x="400" y="440" as="sourcePoint"/>
						<mxPoint x="450" y="390" as="targetPoint"/>
					</mxGeometry>
				</mxCell>
				<mxCell id="5749921808_5749921856" value="['targets', 0]" style="endArrow=classic;html=1;" parent="1" source="5749921808" target="5749921856" edge="1">
					<mxGeometry width="50" height="50" relative="1" as="geometry">
						<mxPoint x="400" y="440" as="sourcePoint"/>
						<mxPoint x="450" y="390" as="targetPoint"/>
					</mxGeometry>
				</mxCell>
				<mxCell id="5749921856_5749921904" value="['elts', 0]" style="endArrow=classic;html=1;" parent="1" source="5749921856" target="5749921904" edge="1">
					<mxGeometry width="50" height="50" relative="1" as="geometry">
						<mxPoint x="400" y="440" as="sourcePoint"/>
						<mxPoint x="450" y="390" as="targetPoint"/>
					</mxGeometry>
				</mxCell>
				<mxCell id="5749921904_4318839760" value="['ctx']" style="endArrow=classic;html=1;" parent="1" source="5749921904" target="4318839760" edge="1">
					<mxGeometry width="50" height="50" relative="1" as="geometry">
						<mxPoint x="400" y="440" as="sourcePoint"/>
						<mxPoint x="450" y="390" as="targetPoint"/>
					</mxGeometry>
				</mxCell>
				<mxCell id="5749921856_5749921952" value="['elts', 1]" style="endArrow=classic;html=1;" parent="1" source="5749921856" target="5749921952" edge="1">
					<mxGeometry width="50" height="50" relative="1" as="geometry">
						<mxPoint x="400" y="440" as="sourcePoint"/>
						<mxPoint x="450" y="390" as="targetPoint"/>
					</mxGeometry>
				</mxCell>
				<mxCell id="5749921952_4318839760" value="['ctx']" style="endArrow=classic;html=1;" parent="1" source="5749921952" target="4318839760" edge="1">
					<mxGeometry width="50" height="50" relative="1" as="geometry">
						<mxPoint x="400" y="440" as="sourcePoint"/>
						<mxPoint x="450" y="390" as="targetPoint"/>
					</mxGeometry>
				</mxCell>
				<mxCell id="5749921856_4318839760" value="['ctx']" style="endArrow=classic;html=1;" parent="1" source="5749921856" target="4318839760" edge="1">
					<mxGeometry width="50" height="50" relative="1" as="geometry">
						<mxPoint x="400" y="440" as="sourcePoint"/>
						<mxPoint x="450" y="390" as="targetPoint"/>
					</mxGeometry>
				</mxCell>
				<mxCell id="5749921808_5749928048" value="['value']" style="endArrow=classic;html=1;" parent="1" source="5749921808" target="5749928048" edge="1">
					<mxGeometry width="50" height="50" relative="1" as="geometry">
						<mxPoint x="400" y="440" as="sourcePoint"/>
						<mxPoint x="450" y="390" as="targetPoint"/>
					</mxGeometry>
				</mxCell>
				<mxCell id="5749928048_5749929200" value="['elts', 0]" style="endArrow=classic;html=1;" parent="1" source="5749928048" target="5749929200" edge="1">
					<mxGeometry width="50" height="50" relative="1" as="geometry">
						<mxPoint x="400" y="440" as="sourcePoint"/>
						<mxPoint x="450" y="390" as="targetPoint"/>
					</mxGeometry>
				</mxCell>
				<mxCell id="5749928048_5749929248" value="['elts', 1]" style="endArrow=classic;html=1;" parent="1" source="5749928048" target="5749929248" edge="1">
					<mxGeometry width="50" height="50" relative="1" as="geometry">
						<mxPoint x="400" y="440" as="sourcePoint"/>
						<mxPoint x="450" y="390" as="targetPoint"/>
					</mxGeometry>
				</mxCell>
				<mxCell id="5749928048_4318839664" value="['ctx']" style="endArrow=classic;html=1;" parent="1" source="5749928048" target="4318839664" edge="1">
					<mxGeometry width="50" height="50" relative="1" as="geometry">
						<mxPoint x="400" y="440" as="sourcePoint"/>
						<mxPoint x="450" y="390" as="targetPoint"/>
					</mxGeometry>
				</mxCell>
				<mxCell id="5752387520_5749926176" value="['body', 2]" style="endArrow=classic;html=1;" parent="1" source="5752387520" target="5749926176" edge="1">
					<mxGeometry width="50" height="50" relative="1" as="geometry">
						<mxPoint x="400" y="440" as="sourcePoint"/>
						<mxPoint x="450" y="390" as="targetPoint"/>
					</mxGeometry>
				</mxCell>
				<mxCell id="5749926176_5749926224" value="['targets', 0]" style="endArrow=classic;html=1;" parent="1" source="5749926176" target="5749926224" edge="1">
					<mxGeometry width="50" height="50" relative="1" as="geometry">
						<mxPoint x="400" y="440" as="sourcePoint"/>
						<mxPoint x="450" y="390" as="targetPoint"/>
					</mxGeometry>
				</mxCell>
				<mxCell id="5749926224_4318839760" value="['ctx']" style="endArrow=classic;html=1;" parent="1" source="5749926224" target="4318839760" edge="1">
					<mxGeometry width="50" height="50" relative="1" as="geometry">
						<mxPoint x="400" y="440" as="sourcePoint"/>
						<mxPoint x="450" y="390" as="targetPoint"/>
					</mxGeometry>
				</mxCell>
				<mxCell id="5749926176_5749926272" value="['value']" style="endArrow=classic;html=1;" parent="1" source="5749926176" target="5749926272" edge="1">
					<mxGeometry width="50" height="50" relative="1" as="geometry">
						<mxPoint x="400" y="440" as="sourcePoint"/>
						<mxPoint x="450" y="390" as="targetPoint"/>
					</mxGeometry>
				</mxCell>
				<mxCell id="5749926272_5749926320" value="['func']" style="endArrow=classic;html=1;" parent="1" source="5749926272" target="5749926320" edge="1">
					<mxGeometry width="50" height="50" relative="1" as="geometry">
						<mxPoint x="400" y="440" as="sourcePoint"/>
						<mxPoint x="450" y="390" as="targetPoint"/>
					</mxGeometry>
				</mxCell>
				<mxCell id="5749926320_4318839664" value="['ctx']" style="endArrow=classic;html=1;" parent="1" source="5749926320" target="4318839664" edge="1">
					<mxGeometry width="50" height="50" relative="1" as="geometry">
						<mxPoint x="400" y="440" as="sourcePoint"/>
						<mxPoint x="450" y="390" as="targetPoint"/>
					</mxGeometry>
				</mxCell>
				<mxCell id="5749926272_5749926368" value="['args', 0]" style="endArrow=classic;html=1;" parent="1" source="5749926272" target="5749926368" edge="1">
					<mxGeometry width="50" height="50" relative="1" as="geometry">
						<mxPoint x="400" y="440" as="sourcePoint"/>
						<mxPoint x="450" y="390" as="targetPoint"/>
					</mxGeometry>
				</mxCell>
				<mxCell id="5749926368_4318839664" value="['ctx']" style="endArrow=classic;html=1;" parent="1" source="5749926368" target="4318839664" edge="1">
					<mxGeometry width="50" height="50" relative="1" as="geometry">
						<mxPoint x="400" y="440" as="sourcePoint"/>
						<mxPoint x="450" y="390" as="targetPoint"/>
					</mxGeometry>
				</mxCell>
				<mxCell id="5749926272_5749926416" value="['args', 1]" style="endArrow=classic;html=1;" parent="1" source="5749926272" target="5749926416" edge="1">
					<mxGeometry width="50" height="50" relative="1" as="geometry">
						<mxPoint x="400" y="440" as="sourcePoint"/>
						<mxPoint x="450" y="390" as="targetPoint"/>
					</mxGeometry>
				</mxCell>
				<mxCell id="5749926416_4318839664" value="['ctx']" style="endArrow=classic;html=1;" parent="1" source="5749926416" target="4318839664" edge="1">
					<mxGeometry width="50" height="50" relative="1" as="geometry">
						<mxPoint x="400" y="440" as="sourcePoint"/>
						<mxPoint x="450" y="390" as="targetPoint"/>
					</mxGeometry>
				</mxCell>
				<mxCell id="5752387520_5749926464" value="['body', 3]" style="endArrow=classic;html=1;" parent="1" source="5752387520" target="5749926464" edge="1">
					<mxGeometry width="50" height="50" relative="1" as="geometry">
						<mxPoint x="400" y="440" as="sourcePoint"/>
						<mxPoint x="450" y="390" as="targetPoint"/>
					</mxGeometry>
				</mxCell>
				<mxCell id="5749926464_5749926512" value="['value']" style="endArrow=classic;html=1;" parent="1" source="5749926464" target="5749926512" edge="1">
					<mxGeometry width="50" height="50" relative="1" as="geometry">
						<mxPoint x="400" y="440" as="sourcePoint"/>
						<mxPoint x="450" y="390" as="targetPoint"/>
					</mxGeometry>
				</mxCell>
				<mxCell id="5749926512_4318839664" value="['ctx']" style="endArrow=classic;html=1;" parent="1" source="5749926512" target="4318839664" edge="1">
					<mxGeometry width="50" height="50" relative="1" as="geometry">
						<mxPoint x="400" y="440" as="sourcePoint"/>
						<mxPoint x="450" y="390" as="targetPoint"/>
					</mxGeometry>
				</mxCell>
			</root>
		</mxGraphModel>
	</diagram>
</mxfile>
